<?xml version="1.0" encoding="UTF-8" standalone="no"?>
<svg width="426px" height="217px" viewBox="0 0 426 217" version="1.1" xmlns="http://www.w3.org/2000/svg" xmlns:xlink="http://www.w3.org/1999/xlink" xmlns:sketch="http://www.bohemiancoding.com/sketch/ns">
    <!-- Generator: Sketch Beta 3.3.2 (12041) - http://www.bohemiancoding.com/sketch -->
    <title>More THan + Group</title>
    <desc>Created with Sketch Beta.</desc>
    <defs></defs>
    <g id="Page-1" stroke="none" stroke-width="1" fill="none" fill-rule="evenodd" sketch:type="MSPage">
        <g id="Desktop-HD" sketch:type="MSArtboardGroup" transform="translate(-513.000000, -283.000000)">
            <g id="More-THan-+-Group" sketch:type="MSLayerGroup" transform="translate(513.000000, 283.000000)">
                <path d="M54.22,86 L54.22,2 L37.06,2 L27.22,47.12 L26.98,47.12 L17.02,2 L0.34,2 L0.34,86 L12.34,86 L12.34,27.68 L12.58,27.68 L23.14,74 L30.7,74 L41.26,27.68 L41.5,27.68 L41.5,86 L54.22,86 Z M87.1,0.8 C74.38,0.8 66.58,8.84 66.58,22.04 L66.58,65.96 C66.58,79.16 74.38,87.2 87.1,87.2 C99.82,87.2 107.62,79.16 107.62,65.96 L107.62,22.04 C107.62,8.84 99.82,0.8 87.1,0.8 L87.1,0.8 Z M87.1,12.56 C92.14,12.56 94.9,15.92 94.9,22.16 L94.9,65.84 C94.9,72.08 92.14,75.44 87.1,75.44 C82.06,75.44 79.3,72.08 79.3,65.84 L79.3,22.16 C79.3,15.92 82.06,12.56 87.1,12.56 L87.1,12.56 Z M147.46,86 L160.9,86 L149.26,47.72 C155.14,44.36 158.26,38.12 158.26,29.24 L158.26,23.24 C158.26,9.44 150.82,2 137.14,2 L118.78,2 L118.78,86 L131.5,86 L131.5,50.48 L137.38,50.48 L147.46,86 Z M131.5,13.76 L136.66,13.76 C142.78,13.76 145.54,17 145.54,24.08 L145.54,28.4 C145.54,35.48 142.78,38.72 136.66,38.72 L131.5,38.72 L131.5,13.76 Z M205.9,13.76 L205.9,2 L170.14,2 L170.14,86 L205.9,86 L205.9,74.24 L182.86,74.24 L182.86,49.28 L201.46,49.28 L201.46,37.52 L182.86,37.52 L182.86,13.76 L205.9,13.76 Z M271.9,14 L271.9,2 L232.06,2 L232.06,14 L245.62,14 L245.62,86 L258.34,86 L258.34,14 L271.9,14 Z M320.5,86 L320.5,2 L307.78,2 L307.78,37.4 L292.66,37.4 L292.66,2 L279.94,2 L279.94,86 L292.66,86 L292.66,49.4 L307.78,49.4 L307.78,86 L320.5,86 Z M374.86,86 L360.34,2 L344.14,2 L329.62,86 L342.34,86 L345.1,66.92 L359.14,66.92 L361.9,86 L374.86,86 Z M351.94,20 L352.3,20 L357.46,55.4 L346.78,55.4 L351.94,20 Z M425.38,86 L425.38,2 L413.38,2 L413.38,52.04 L413.14,52.04 L398.14,2 L383.98,2 L383.98,86 L395.98,86 L395.98,30.32 L396.22,30.32 L412.9,86 L425.38,86 Z" id="More-THan" fill="#5B5B5B" sketch:type="MSShapeGroup"></path>
                <g id="Group" transform="translate(64.000000, 129.000000)" sketch:type="MSShapeGroup">
                    <path d="M28.58,2 L24.86,2 C13.1,2 7.94,6.44 7.94,18.56 L7.94,32 C7.94,37.4 6.14,39.44 0.86,39.44 L0.86,48.56 C6.14,48.56 7.94,50.6 7.94,56 L7.94,69.44 C7.94,81.56 13.1,86 24.86,86 L28.58,86 L28.58,76.88 C22.58,76.88 20.66,74.72 20.66,68.72 L20.66,54.8 C20.66,49.52 18.62,45.92 14.3,44.12 L14.3,43.88 C18.62,42.08 20.66,38.48 20.66,33.2 L20.66,19.28 C20.66,13.28 22.58,11.12 28.58,11.12 L28.58,2 L28.58,2 Z" id="{code}" fill="#526C7C">
                        <animateTransform attributeName="transform" begin="0s" dur="1s" keySplines="0 0 1 1" type="translate" values="-30 0; 0 0;" repeatCount="1"/>    
                    </path>

                    <path d="M255.315555,86 L259.035555,86 C270.795555,86 275.955555,81.56 275.955555,69.44 L275.955555,56 C275.955555,50.6 277.755555,48.56 283.035555,48.56 L283.035555,39.44 C277.755555,39.44 275.955555,37.4 275.955555,32 L275.955555,18.56 C275.955555,6.44 270.795555,2 259.035555,2 L255.315555,2 L255.315555,11.12 C261.315555,11.12 263.235555,13.28 263.235555,19.28 L263.235555,33.2 C263.235555,38.48 265.275555,42.08 269.595555,43.88 L269.595555,44.12 C265.275555,45.92 263.235555,49.52 263.235555,54.8 L263.235555,68.72 C263.235555,74.72 261.315555,76.88 255.315555,76.88 L255.315555,86 L255.315555,86 Z" id="Path" fill="#526C7C">
                        <animateTransform attributeName="transform" begin="0s" dur="1s" keySplines="0 0 1 1" type="translate" values="30 0;0 0;" repeatCount="1"/>    
                    </path>
                    <path d="M62.5066665,0.8 C50.1466665,0.8 42.9466665,8.24 42.9466665,20.96 L42.9466665,67.04 C42.9466665,79.76 50.1466665,87.2 62.5066665,87.2 C74.9866665,87.2 82.3066665,79.76 82.3066665,67.04 L82.3066665,56.96 L70.0666665,56.36 L70.0666665,65.72 C70.0666665,72.44 67.5466665,75.44 62.8666665,75.44 C58.1866665,75.44 55.6666665,72.44 55.6666665,66.92 L55.6666665,21.08 C55.6666665,15.56 58.1866665,12.56 62.8666665,12.56 C67.5466665,12.56 70.0666665,15.56 70.0666665,22.28 L70.0666665,29.12 L82.3066665,28.52 L82.3066665,20.96 C82.3066665,8.24 74.9866665,0.8 62.5066665,0.8 L62.5066665,0.8" id="Path" fill="#63BE92">

                    </path>
                    <path d="M116.018889,0.8 C103.298889,0.8 95.4988886,8.84 95.4988886,22.04 L95.4988886,65.96 C95.4988886,79.16 103.298889,87.2 116.018889,87.2 C128.738889,87.2 136.538889,79.16 136.538889,65.96 L136.538889,22.04 C136.538889,8.84 128.738889,0.8 116.018889,0.8 Z M116.018889,12.56 C121.058889,12.56 123.818889,15.92 123.818889,22.16 L123.818889,65.84 C123.818889,72.08 121.058889,75.44 116.018889,75.44 C110.978889,75.44 108.218889,72.08 108.218889,65.84 L108.218889,22.16 C108.218889,15.92 110.978889,12.56 116.018889,12.56 Z" id="Path" fill="#63BE92"></path>
                    <path d="M152.371111,2 L152.371111,86 L170.611111,86 C184.291111,86 191.731111,78.56 191.731111,64.76 L191.731111,23.24 C191.731111,9.44 184.291111,2 170.611111,2 L152.371111,2 Z M165.091111,13.76 L170.131111,13.76 C176.251111,13.76 179.011111,17 179.011111,24.08 L179.011111,63.92 C179.011111,71 176.251111,74.24 170.131111,74.24 L165.091111,74.24 L165.091111,13.76 Z" id="Path" fill="#63BE92"></path>
                    <path d="M243.323333,13.76 L243.323333,2 L207.563333,2 L207.563333,86 L243.323333,86 L243.323333,74.24 L220.283333,74.24 L220.283333,49.28 L238.883333,49.28 L238.883333,37.52 L220.283333,37.52 L220.283333,13.76 L243.323333,13.76" id="Path" fill="#63BE92">
                    <animate attributeName="opacity" values="0;2;0;"  begin="0s" dur="2s" repeatCount="indefinite" />

                    </path>
                </g>
            </g>
        </g>
    </g>
</svg>