<?xml version="1.0" encoding="UTF-8" standalone="no"?>
<svg width="158px" height="153px" viewBox="0 0 158 153" version="1.1" xmlns="http://www.w3.org/2000/svg" xmlns:xlink="http://www.w3.org/1999/xlink" xmlns:sketch="http://www.bohemiancoding.com/sketch/ns">
    <!-- Generator: Sketch Beta 3.3.2 (12041) - http://www.bohemiancoding.com/sketch -->
    <title>Group</title>
    <desc>Created with Sketch Beta.</desc>
    <defs></defs>
    <g id="Page-1" stroke="none" stroke-width="1" fill="none" fill-rule="evenodd" sketch:type="MSPage">
        <g id="Desktop-HD" sketch:type="MSArtboardGroup" transform="translate(-641.000000, -73.000000)">
            <g id="Group" sketch:type="MSLayerGroup" transform="translate(641.000000, 73.000000)">
                <g transform="translate(4.432571, 0.812091)" sketch:type="MSShapeGroup">
                    <path id="Path-1" stroke="#979797" d=""></path>
                    <path d="M46.7977313,4.92540941 L1.13406433,49.6484845 L7.05833785,111.069158 L64.3694903,146.583587 L120.921497,130.096154 L148.426337,55.1298553 L115.009242,15.9722011 L46.7977313,4.92540941 Z" id="Path-2" stroke="#D3D3D3" stroke-width="2" stroke-dasharray="8"></path>
                    <path d="M46.7977314,5.40353441 L65.3977086,49.4623001 L34.5511594,90.9384996 L99.0718583,87.5894897 L121.949716,129.065689" id="Path-3" stroke="#D3D3D3" stroke-width="2" stroke-linecap="round" stroke-dasharray="8"></path>
                    <path d="M0.172809948,50.7129095 L65.3977086,49.4623001 L114.495133,17.2602818 L100.100077,87.0742574 L64.1124357,146.325971 L35.3223231,90.4232673 L0.172809948,50.7129095 Z" id="Path-4" stroke="#D3D3D3" stroke-width="2" stroke-linecap="round" stroke-dasharray="8"></path>
                    <path d="M66.1688724,49.2046839 L98.8148037,87.0742574 L149.968665,55.6450876" id="Path-5" stroke="#D3D3D3" stroke-width="2" stroke-linecap="round" stroke-dasharray="8"></path>
                    <path d="M36.607596,90.4232673 L6.10076196,112.025409" id="Path-6" stroke="#D3D3D3" stroke-width="2" stroke-linecap="round" stroke-dasharray="8"></path>
                </g>
                <ellipse id="Oval-1" fill="#DBD9DC" sketch:type="MSShapeGroup" cx="68.8020617" cy="50.5320069" rx="5.39814612" ry="5.40993907"></ellipse>
                <ellipse id="Oval-1-Copy" fill="#A7D7BA" sketch:type="MSShapeGroup" cx="119.698868" cy="17.0419078" rx="5.39814612" ry="5.40993907"></ellipse>
                <ellipse id="Oval-1-Copy-2" fill="#F3CF7F" sketch:type="MSShapeGroup" cx="50.8082413" cy="6.2220297" rx="5.39814612" ry="5.40993907"></ellipse>
                <ellipse id="Oval-1-Copy-3" fill="#E5AAB4" sketch:type="MSShapeGroup" cx="5.56663568" cy="50.5320069" rx="5.39814612" ry="5.40993907"></ellipse>
                <ellipse id="Oval-1-Copy-4" fill="#A7D7BA" sketch:type="MSShapeGroup" cx="12.269666" cy="111.477847" rx="5.39814612" ry="5.40993907"></ellipse>
                <ellipse id="Oval-1-Copy-5" fill="#98D2B2" sketch:type="MSShapeGroup" cx="40.011949" cy="91.235358" rx="5.39814612" ry="5.40993907"></ellipse>
                <ellipse id="Oval-1-Copy-6" fill="#979C9D" sketch:type="MSShapeGroup" cx="103.247375" cy="88.1439642" rx="5.39814612" ry="5.40993907"></ellipse>
                <ellipse id="Oval-1-Copy-7" fill="#C7B8D7" sketch:type="MSShapeGroup" cx="68.8020617" cy="146.880446" rx="5.39814612" ry="5.40993907"></ellipse>
                <ellipse id="Oval-1-Copy-8" fill="#A7D7BA" sketch:type="MSShapeGroup" cx="124.83996" cy="129.87778" rx="5.39814612" ry="5.40993907"></ellipse>
                <ellipse id="Oval-1-Copy-9" fill="#A7D7BA" sketch:type="MSShapeGroup" cx="152.601854" cy="56.1995621" rx="5.39814612" ry="5.40993907"></ellipse>
            </g>
        </g>
    </g>
</svg>